<?xml version="1.0" standalone="no"?>
<!DOCTYPE svg PUBLIC "-//W3C//DTD SVG 20010904//EN"
 "http://www.w3.org/TR/2001/REC-SVG-20010904/DTD/svg10.dtd">
<svg version="1.0" xmlns="http://www.w3.org/2000/svg"
 width="2187.000000pt" height="2187.000000pt" viewBox="0 0 2187.000000 2187.000000"
 preserveAspectRatio="xMidYMid meet">
<metadata>
Created by potrace 1.11, written by Peter Selinger 2001-2013
</metadata>
<g transform="translate(0.000000,2187.000000) scale(0.100000,-0.100000)"
fill="#000000" stroke="none">
<path d="M5172 21854 c-156 -40 -340 -200 -479 -416 -108 -169 -369 -772 -588
-1356 -98 -263 -112 -322 -94 -400 4 -19 3 -35 -3 -38 -9 -6 -4 -334 6 -444 2
-19 7 -73 10 -120 7 -96 16 -196 21 -255 24 -264 24 -940 0 -1340 -2 -27 -6
-111 -10 -185 -3 -74 -8 -155 -10 -180 -2 -25 -6 -110 -10 -190 -7 -148 -11
-221 -19 -319 -8 -87 -18 -221 -22 -276 -4 -74 -5 -477 0 -500 2 -11 7 -62 10
-113 4 -51 9 -102 11 -113 2 -12 7 -47 11 -78 5 -44 61 -341 78 -411 17 -67
75 -254 117 -372 130 -367 210 -688 289 -1155 16 -98 32 -189 34 -203 3 -14
10 -61 16 -105 7 -44 13 -87 15 -95 4 -26 15 -103 20 -145 11 -92 17 -142 21
-170 11 -75 28 -144 47 -190 11 -27 21 -70 22 -95 3 -57 14 -108 30 -140 12
-24 17 -45 30 -137 3 -21 8 -43 10 -50 2 -6 7 -36 10 -66 6 -49 1 -72 -50
-222 -79 -237 -165 -550 -199 -725 -3 -14 -10 -50 -16 -80 -6 -30 -13 -67 -15
-83 -3 -15 -7 -39 -9 -55 -14 -77 -26 -151 -31 -187 -3 -23 -7 -50 -9 -60 -2
-11 -7 -51 -11 -90 -4 -38 -9 -77 -10 -86 -2 -9 -6 -52 -10 -95 -3 -43 -8 -90
-10 -104 -2 -14 -7 -77 -10 -140 -10 -184 -12 -213 -18 -250 -4 -19 -9 -111
-13 -205 -3 -93 -7 -192 -9 -220 -2 -27 -6 -104 -10 -170 -3 -66 -7 -151 -10
-190 -12 -180 -20 -357 -30 -612 -3 -73 -9 -150 -14 -171 -8 -40 -7 -720 2
-757 2 -11 8 -50 11 -87 4 -37 9 -80 12 -95 28 -167 26 -156 53 -293 11 -58
22 -116 25 -130 2 -14 16 -72 31 -130 15 -58 29 -116 31 -130 3 -14 7 -33 10
-42 3 -9 6 -25 8 -35 2 -10 16 -65 31 -123 127 -504 211 -743 364 -1035 58
-111 88 -163 184 -320 135 -220 416 -604 565 -773 11 -13 35 -41 53 -63 111
-137 339 -366 459 -462 152 -123 300 -215 510 -318 280 -138 518 -210 737
-224 104 -6 260 -32 398 -66 44 -11 89 -22 100 -24 97 -21 311 -108 550 -225
295 -143 511 -238 905 -397 129 -52 271 -110 315 -129 312 -137 648 -332 975
-564 19 -14 75 -57 125 -96 152 -118 231 -174 465 -328 277 -183 590 -394 625
-423 91 -75 563 -390 858 -572 125 -77 238 -151 250 -165 13 -14 42 -29 65
-35 24 -5 53 -16 67 -25 13 -9 29 -16 36 -16 6 0 36 -23 67 -51 84 -75 244
-148 382 -175 14 -3 41 -9 60 -14 19 -5 58 -12 85 -15 28 -4 61 -9 75 -11 26
-4 70 -8 185 -18 39 -4 158 -9 265 -11 107 -3 209 -7 225 -9 17 -3 54 -7 84
-11 29 -3 85 -10 125 -16 39 -6 81 -12 93 -14 12 -2 36 -6 54 -10 54 -12 207
-14 247 -3 20 5 52 16 71 25 18 8 48 17 65 20 50 7 91 22 112 41 10 10 34 24
52 31 18 8 43 26 55 41 49 58 98 65 212 30 55 -18 82 -21 130 -15 33 4 82 9
108 11 26 2 60 12 75 21 77 47 192 126 192 131 0 4 17 25 38 48 20 22 64 71
97 109 33 37 69 78 81 90 75 76 183 253 214 348 6 20 29 72 50 115 22 42 62
149 91 237 28 88 69 216 92 285 22 69 51 150 65 180 19 41 27 77 30 140 3 67
12 102 38 168 19 45 46 124 59 175 22 81 29 116 51 227 22 114 57 249 83 318
47 129 151 307 215 367 56 53 147 166 208 259 54 82 152 273 188 366 8 19 24
51 36 71 49 80 78 221 109 534 3 33 8 74 10 90 4 32 12 123 20 220 5 65 11
142 21 245 12 134 12 229 1 266 -7 22 -43 96 -80 165 -37 69 -67 132 -67 139
0 27 -52 79 -113 114 -77 43 -148 114 -181 181 -14 28 -36 97 -51 154 -28 113
-49 165 -78 196 -11 11 -27 39 -38 62 -10 23 -41 75 -68 114 -28 40 -51 82
-51 95 0 25 -135 249 -219 365 -31 42 -142 190 -248 331 -105 140 -201 272
-213 294 -12 21 -32 50 -44 64 -26 30 -38 53 -71 143 -42 114 -92 205 -216
392 -191 291 -213 343 -309 726 -47 190 -140 621 -166 774 -4 27 -13 68 -44
200 -13 53 -68 322 -74 360 -3 17 -12 71 -20 120 -40 237 -37 443 9 620 69
268 78 324 79 470 0 200 -20 324 -89 529 -97 290 -175 442 -354 691 -20 28
-48 64 -63 80 -14 17 -40 46 -58 65 -17 19 -37 47 -45 61 -7 14 -33 42 -57 63
-24 21 -95 88 -158 150 -63 62 -153 143 -200 179 -47 37 -90 71 -95 75 -6 5
-24 17 -40 28 -17 10 -80 56 -141 101 -108 80 -132 103 -244 232 -30 35 -64
73 -75 85 -50 53 -135 154 -135 160 0 9 -102 138 -150 189 -44 48 -109 145
-116 174 -4 14 21 98 69 230 87 243 133 396 151 500 3 15 8 44 11 63 16 91 12
269 -9 383 -22 122 -29 411 -13 557 9 83 12 116 22 240 4 47 8 99 10 115 2 17
7 66 10 110 3 44 8 91 10 105 2 14 6 52 10 85 5 52 14 108 31 200 2 13 6 69 8
124 2 54 6 103 9 107 6 11 15 81 22 189 11 146 25 297 30 305 5 9 19 202 19
275 1 39 -4 97 -10 130 -6 34 -12 129 -13 213 -1 108 -7 177 -20 235 -11 45
-22 116 -25 158 -4 42 -9 87 -11 100 -3 13 -8 44 -11 69 -3 25 -9 61 -14 80
-5 19 -11 46 -14 60 -31 166 -124 440 -241 715 -26 61 -53 126 -62 145 -59
141 -124 253 -195 341 -32 39 -58 76 -58 82 -1 17 -28 46 -77 85 -24 19 -43
38 -43 44 0 6 -10 20 -22 32 -13 12 -32 33 -43 47 -31 39 -92 83 -188 133 -49
26 -111 61 -138 78 -55 33 -127 58 -171 58 -16 0 -40 7 -53 16 -21 14 -34 15
-92 4 -96 -16 -146 -41 -204 -102 -90 -93 -213 -305 -293 -503 -16 -38 -34
-83 -41 -100 -7 -16 -50 -127 -95 -245 -46 -118 -119 -303 -163 -410 -43 -107
-115 -285 -159 -395 -44 -110 -83 -209 -88 -220 -34 -76 -199 -607 -236 -755
-15 -62 -54 -265 -59 -310 -3 -30 -8 -66 -10 -80 -2 -14 -7 -47 -10 -75 -3
-27 -8 -66 -10 -85 -2 -19 -7 -60 -11 -90 -3 -30 -7 -62 -9 -70 -1 -8 -6 -40
-10 -70 -8 -63 -9 -68 -31 -175 -30 -148 -89 -244 -202 -327 -104 -77 -287
-143 -424 -153 -166 -12 -195 -15 -218 -19 -14 -3 -36 -8 -50 -11 -38 -8 -137
-21 -259 -34 -144 -15 -471 -3 -661 24 -36 5 -110 16 -145 21 -25 4 -144 25
-220 40 -32 6 -206 129 -319 225 -168 143 -292 282 -409 459 -64 98 -150 255
-145 264 2 2 -4 12 -13 22 -15 17 -391 769 -482 964 -19 41 -57 122 -85 180
-80 169 -132 280 -167 355 -77 167 -102 220 -186 390 -83 169 -153 304 -253
490 -24 44 -96 185 -161 314 -64 128 -147 284 -183 345 -35 61 -78 136 -95
166 -16 30 -33 60 -37 65 -5 6 -20 33 -36 60 -63 115 -144 238 -258 391 -67
90 -151 205 -189 256 -190 262 -244 321 -372 406 -132 87 -229 112 -333 86z"/>
</g>
</svg>
